# xmcd CD database file
#
# Track frame offsets:
#	150
#	17875
#	37187
#	53757
#	66525
#	83912
#	96612
#	117012
#	132225
#	147575
#	161250
#	179962
#	192450
#	209925
#	222525
#	236850
#
# Disc length: 3321 seconds
#
# Revision: 2
# Processed by: cddbd v1.5.2PL0 Copyright (c) Steve Scherf et al.
# Submitted via: CDex 1.51
#
DISCID=0f0cf710
DTITLE=Various Artist - 典藏國語老歌03
DYEAR=2002
DGENRE=國語老歌
TTITLE0=北國之春 鄧麗君
TTITLE1=初戀女 費玉清
TTITLE2=重相逢 蔡琴
TTITLE3=空留回憶 姚蘇蓉
TTITLE4=懷念 蔡琴
TTITLE5=相思河畔 鳳飛飛
TTITLE6=雪山盟 費玉清
TTITLE7=問白雲 蔡琴
TTITLE8=秋夜 紫微
TTITLE9=我沒有騙你 鄧麗君
TTITLE10=月兒彎彎照九州 紫微
TTITLE11=凝望 費玉清
TTITLE12=未曾留下地址 鳳飛飛
TTITLE13=晚風 劉家昌
TTITLE14=回來吧心上人 楊小萍
TTITLE15=春風吻上我的臉 鳳飛飛
EXTD=YEAR: 2002
EXTT0=
EXTT1=
EXTT2=
EXTT3=
EXTT4=
EXTT5=
EXTT6=
EXTT7=
EXTT8=
EXTT9=
EXTT10=
EXTT11=
EXTT12=
EXTT13=
EXTT14=
EXTT15=
PLAYORDER=
